<?xml version="1.0" encoding="iso-8859-1"?>
<!-- Generator: Adobe Illustrator 19.0.0, SVG Export Plug-In . SVG Version: 6.00 Build 0)  -->
<svg version="1.1" id="Capa_1" xmlns="http://www.w3.org/2000/svg" xmlns:xlink="http://www.w3.org/1999/xlink" x="0px" y="0px"
	 viewBox="0 0 463 463" style="enable-background:new 0 0 463 463;" xml:space="preserve">
<path d="M391,183.5c0-10.336-6.71-19.128-16-22.266V77.766c9.29-3.138,16-11.93,16-22.266c0-12.958-10.542-23.5-23.5-23.5H351V15
	h0.5c4.143,0,7.5-3.357,7.5-7.5S355.643,0,351.5,0h-64c-4.143,0-7.5,3.357-7.5,7.5s3.357,7.5,7.5,7.5h0.5v17H95.5
	C82.542,32,72,42.542,72,55.5c0,10.336,6.71,19.128,16,22.266v83.469c-9.29,3.138-16,11.93-16,22.266s6.71,19.128,16,22.266v83.469
	c-9.29,3.138-16,11.93-16,22.266s6.71,19.128,16,22.266v83.469c-9.29,3.138-16,11.93-16,22.266c0,12.958,10.542,23.5,23.5,23.5h272
	c12.958,0,23.5-10.542,23.5-23.5c0-10.336-6.71-19.128-16-22.266v-83.469c9.29-3.138,16-11.93,16-22.266s-6.71-19.128-16-22.266
	v-83.469C384.29,202.628,391,193.836,391,183.5z M103,160V79h257v81H103z M303,15h33v17h-33V15z M95.5,47h272
	c4.687,0,8.5,3.813,8.5,8.5s-3.813,8.5-8.5,8.5h-272c-4.687,0-8.5-3.813-8.5-8.5S90.813,47,95.5,47z M95.5,175h272
	c4.687,0,8.5,3.813,8.5,8.5s-3.813,8.5-8.5,8.5h-272c-4.687,0-8.5-3.813-8.5-8.5S90.813,175,95.5,175z M103,288v-81h257v81H103z
	 M360,335v81H103v-81H360z M367.5,448h-272c-4.687,0-8.5-3.813-8.5-8.5s3.813-8.5,8.5-8.5h272c4.687,0,8.5,3.813,8.5,8.5
	S372.187,448,367.5,448z M367.5,320h-272c-4.687,0-8.5-3.813-8.5-8.5s3.813-8.5,8.5-8.5h272c4.687,0,8.5,3.813,8.5,8.5
	S372.187,320,367.5,320z"/>
<g>
</g>
<g>
</g>
<g>
</g>
<g>
</g>
<g>
</g>
<g>
</g>
<g>
</g>
<g>
</g>
<g>
</g>
<g>
</g>
<g>
</g>
<g>
</g>
<g>
</g>
<g>
</g>
<g>
</g>
</svg>
