<svg height="512pt" viewBox="-59 0 512 512" width="512pt" xmlns="http://www.w3.org/2000/svg"><path d="m169.882812 86.480469c-8.28125 0-69.515624 0-77.800781 0-8.28125 0-15-6.714844-15-15v-56.480469c0-8.285156 6.71875-15 15-15h77.800781c8.285157 0 15 6.714844 15 15v56.480469c0 8.285156-6.714843 15-15 15zm0 0" fill="#feca05"/><path d="m378.652344 299.238281c8.285156 0 15-6.714843 15-15 0-8.28125-6.714844-15-15-15h-16.933594v-182.757812h16.933594c8.285156 0 15-6.714844 15-15 0-8.285157-6.714844-15-15-15h-358.117188c-8.28125 0-15 6.714843-15 15 0 8.285156 6.71875 15 15 15h16.9375v182.757812h-16.9375c-8.28125 0-15 6.71875-15 15 0 8.285157 6.71875 15 15 15h16.9375v182.761719h-16.9375c-8.28125 0-15 6.714844-15 15s6.71875 15 15 15h358.117188c8.285156 0 15-6.714844 15-15s-6.714844-15-15-15h-16.933594v-182.761719zm0 0" fill="#68afe7"/><path d="m378.652344 299.238281c8.285156 0 15-6.714843 15-15 0-8.28125-6.714844-15-15-15h-16.933594v-182.757812h16.933594c8.285156 0 15-6.714844 15-15 0-8.285157-6.714844-15-15-15h-179.058594v455.519531h179.058594c8.285156 0 15-6.714844 15-15s-6.714844-15-15-15h-16.933594v-182.761719zm0 0" fill="#3e98df"/><path d="m199.59375 360.613281c-29.769531 0-53.984375-24.390625-53.984375-54.371093 0-7.453126 2.207031-21.46875 21.28125-56.945313 9.882813-18.382813 19.617187-33.800781 20.027344-34.449219 2.75-4.34375 7.535156-6.980468 12.675781-6.980468 5.144531 0 9.929688 2.636718 12.679688 6.980468.40625.648438 10.140624 16.066406 20.027343 34.449219 19.074219 35.476563 21.28125 49.492187 21.28125 56.945313 0 29.980468-24.21875 54.371093-53.988281 54.371093zm0 0" fill="#bbf9f6"/><path d="m253.582031 306.242188c0-7.453126-2.207031-21.46875-21.28125-56.941407-9.886719-18.382812-19.621093-33.804687-20.027343-34.449219-2.75-4.347656-7.535157-6.984374-12.679688-6.984374v152.746093c29.769531 0 53.988281-24.390625 53.988281-54.371093zm0 0" fill="#48f5fd"/><path d="m378.199219 151.921875h-363.199219c-8.285156 0-15-6.714844-15-15s6.714844-15 15-15h363.199219c8.285156 0 15 6.714844 15 15s-6.714844 15-15 15zm0 0" fill="#1a659e"/><path d="m393.199219 136.921875c0-8.285156-6.714844-15-15-15h-178.605469v30h178.605469c8.285156 0 15-6.714844 15-15zm0 0" fill="#0d4168"/><path d="m378.199219 446.558594h-359.367188c-8.28125 0-15-6.714844-15-15s6.71875-15 15-15h359.367188c8.285156 0 15 6.714844 15 15s-6.714844 15-15 15zm0 0" fill="#1a659e"/><path d="m378.199219 416.558594h-178.605469v30h178.605469c8.285156 0 15-6.714844 15-15s-6.714844-15-15-15zm0 0" fill="#0d4168"/></svg>